<mxfile host="app.diagrams.net" agent="Mozilla/5.0 (Windows NT 10.0; Win64; x64) AppleWebKit/537.36 (KHTML, like Gecko) Chrome/132.0.0.0 Safari/537.36 OPR/117.0.0.0" version="26.2.12" pages="2">
  <diagram name="ComeÃ§o" id="dGIr2NXnYl4_yYJOK11w">
    <mxGraphModel dx="2288" dy="638" grid="1" gridSize="10" guides="1" tooltips="1" connect="1" arrows="1" fold="1" page="1" pageScale="1" pageWidth="827" pageHeight="1169" math="0" shadow="0">
      <root>
        <mxCell id="0" />
        <mxCell id="1" parent="0" />
        <mxCell id="62JcThlHotMg25Pqv04E-8" style="edgeStyle=orthogonalEdgeStyle;rounded=0;orthogonalLoop=1;jettySize=auto;html=1;exitX=0;exitY=0.5;exitDx=0;exitDy=0;" edge="1" parent="1" source="62JcThlHotMg25Pqv04E-1" target="62JcThlHotMg25Pqv04E-2">
          <mxGeometry relative="1" as="geometry" />
        </mxCell>
        <mxCell id="62JcThlHotMg25Pqv04E-9" style="edgeStyle=orthogonalEdgeStyle;rounded=0;orthogonalLoop=1;jettySize=auto;html=1;" edge="1" parent="1" source="62JcThlHotMg25Pqv04E-1" target="62JcThlHotMg25Pqv04E-3">
          <mxGeometry relative="1" as="geometry" />
        </mxCell>
        <mxCell id="62JcThlHotMg25Pqv04E-1" value="35" style="ellipse;whiteSpace=wrap;html=1;aspect=fixed;" vertex="1" parent="1">
          <mxGeometry x="350" y="50" width="80" height="80" as="geometry" />
        </mxCell>
        <mxCell id="62JcThlHotMg25Pqv04E-10" style="edgeStyle=orthogonalEdgeStyle;rounded=0;orthogonalLoop=1;jettySize=auto;html=1;" edge="1" parent="1" source="62JcThlHotMg25Pqv04E-2" target="62JcThlHotMg25Pqv04E-4">
          <mxGeometry relative="1" as="geometry" />
        </mxCell>
        <mxCell id="62JcThlHotMg25Pqv04E-11" style="edgeStyle=orthogonalEdgeStyle;rounded=0;orthogonalLoop=1;jettySize=auto;html=1;entryX=0.5;entryY=0;entryDx=0;entryDy=0;" edge="1" parent="1" source="62JcThlHotMg25Pqv04E-2" target="62JcThlHotMg25Pqv04E-5">
          <mxGeometry relative="1" as="geometry" />
        </mxCell>
        <mxCell id="62JcThlHotMg25Pqv04E-2" value="32" style="ellipse;whiteSpace=wrap;html=1;aspect=fixed;" vertex="1" parent="1">
          <mxGeometry x="70" y="180" width="80" height="80" as="geometry" />
        </mxCell>
        <mxCell id="62JcThlHotMg25Pqv04E-12" style="edgeStyle=orthogonalEdgeStyle;rounded=0;orthogonalLoop=1;jettySize=auto;html=1;" edge="1" parent="1" source="62JcThlHotMg25Pqv04E-3" target="62JcThlHotMg25Pqv04E-6">
          <mxGeometry relative="1" as="geometry" />
        </mxCell>
        <mxCell id="62JcThlHotMg25Pqv04E-13" style="edgeStyle=orthogonalEdgeStyle;rounded=0;orthogonalLoop=1;jettySize=auto;html=1;" edge="1" parent="1" source="62JcThlHotMg25Pqv04E-3" target="62JcThlHotMg25Pqv04E-7">
          <mxGeometry relative="1" as="geometry" />
        </mxCell>
        <mxCell id="62JcThlHotMg25Pqv04E-3" value="17" style="ellipse;whiteSpace=wrap;html=1;aspect=fixed;" vertex="1" parent="1">
          <mxGeometry x="640" y="180" width="80" height="80" as="geometry" />
        </mxCell>
        <mxCell id="62JcThlHotMg25Pqv04E-28" style="edgeStyle=orthogonalEdgeStyle;rounded=0;orthogonalLoop=1;jettySize=auto;html=1;entryX=1;entryY=0.5;entryDx=0;entryDy=0;" edge="1" parent="1" source="62JcThlHotMg25Pqv04E-4" target="62JcThlHotMg25Pqv04E-14">
          <mxGeometry relative="1" as="geometry" />
        </mxCell>
        <mxCell id="62JcThlHotMg25Pqv04E-29" style="edgeStyle=orthogonalEdgeStyle;rounded=0;orthogonalLoop=1;jettySize=auto;html=1;entryX=0;entryY=0.5;entryDx=0;entryDy=0;" edge="1" parent="1" source="62JcThlHotMg25Pqv04E-4" target="62JcThlHotMg25Pqv04E-15">
          <mxGeometry relative="1" as="geometry" />
        </mxCell>
        <mxCell id="62JcThlHotMg25Pqv04E-4" value="21" style="ellipse;whiteSpace=wrap;html=1;aspect=fixed;" vertex="1" parent="1">
          <mxGeometry x="-60" y="280" width="80" height="80" as="geometry" />
        </mxCell>
        <mxCell id="62JcThlHotMg25Pqv04E-26" style="edgeStyle=orthogonalEdgeStyle;rounded=0;orthogonalLoop=1;jettySize=auto;html=1;entryX=1;entryY=0.5;entryDx=0;entryDy=0;" edge="1" parent="1" source="62JcThlHotMg25Pqv04E-5" target="62JcThlHotMg25Pqv04E-16">
          <mxGeometry relative="1" as="geometry" />
        </mxCell>
        <mxCell id="62JcThlHotMg25Pqv04E-27" style="edgeStyle=orthogonalEdgeStyle;rounded=0;orthogonalLoop=1;jettySize=auto;html=1;entryX=0;entryY=0.5;entryDx=0;entryDy=0;" edge="1" parent="1" source="62JcThlHotMg25Pqv04E-5" target="62JcThlHotMg25Pqv04E-17">
          <mxGeometry relative="1" as="geometry" />
        </mxCell>
        <mxCell id="62JcThlHotMg25Pqv04E-5" value="11" style="ellipse;whiteSpace=wrap;html=1;aspect=fixed;" vertex="1" parent="1">
          <mxGeometry x="190" y="280" width="80" height="80" as="geometry" />
        </mxCell>
        <mxCell id="62JcThlHotMg25Pqv04E-22" style="edgeStyle=orthogonalEdgeStyle;rounded=0;orthogonalLoop=1;jettySize=auto;html=1;entryX=0;entryY=0.5;entryDx=0;entryDy=0;" edge="1" parent="1" source="62JcThlHotMg25Pqv04E-6" target="62JcThlHotMg25Pqv04E-19">
          <mxGeometry relative="1" as="geometry" />
        </mxCell>
        <mxCell id="62JcThlHotMg25Pqv04E-23" style="edgeStyle=orthogonalEdgeStyle;rounded=0;orthogonalLoop=1;jettySize=auto;html=1;entryX=1;entryY=0.5;entryDx=0;entryDy=0;" edge="1" parent="1" source="62JcThlHotMg25Pqv04E-6" target="62JcThlHotMg25Pqv04E-18">
          <mxGeometry relative="1" as="geometry" />
        </mxCell>
        <mxCell id="62JcThlHotMg25Pqv04E-6" value="16" style="ellipse;whiteSpace=wrap;html=1;aspect=fixed;" vertex="1" parent="1">
          <mxGeometry x="500" y="280" width="80" height="80" as="geometry" />
        </mxCell>
        <mxCell id="62JcThlHotMg25Pqv04E-7" value="7" style="ellipse;whiteSpace=wrap;html=1;aspect=fixed;" vertex="1" parent="1">
          <mxGeometry x="790" y="280" width="80" height="80" as="geometry" />
        </mxCell>
        <mxCell id="62JcThlHotMg25Pqv04E-14" value="9" style="ellipse;whiteSpace=wrap;html=1;aspect=fixed;" vertex="1" parent="1">
          <mxGeometry x="-140" y="370" width="80" height="80" as="geometry" />
        </mxCell>
        <mxCell id="62JcThlHotMg25Pqv04E-15" value="8" style="ellipse;whiteSpace=wrap;html=1;aspect=fixed;" vertex="1" parent="1">
          <mxGeometry x="10" y="370" width="80" height="80" as="geometry" />
        </mxCell>
        <mxCell id="62JcThlHotMg25Pqv04E-16" value="10" style="ellipse;whiteSpace=wrap;html=1;aspect=fixed;" vertex="1" parent="1">
          <mxGeometry x="120" y="370" width="80" height="80" as="geometry" />
        </mxCell>
        <mxCell id="62JcThlHotMg25Pqv04E-17" value="3" style="ellipse;whiteSpace=wrap;html=1;aspect=fixed;" vertex="1" parent="1">
          <mxGeometry x="270" y="370" width="80" height="80" as="geometry" />
        </mxCell>
        <mxCell id="62JcThlHotMg25Pqv04E-18" value="4" style="ellipse;whiteSpace=wrap;html=1;aspect=fixed;" vertex="1" parent="1">
          <mxGeometry x="420" y="370" width="80" height="80" as="geometry" />
        </mxCell>
        <mxCell id="62JcThlHotMg25Pqv04E-19" value="6" style="ellipse;whiteSpace=wrap;html=1;aspect=fixed;" vertex="1" parent="1">
          <mxGeometry x="580" y="370" width="80" height="80" as="geometry" />
        </mxCell>
      </root>
    </mxGraphModel>
  </diagram>
  <diagram name="Fim" id="CwJXfZSQp6i4fI6K3OpX">
    <mxGraphModel dx="2380" dy="678" grid="1" gridSize="10" guides="1" tooltips="1" connect="1" arrows="1" fold="1" page="1" pageScale="1" pageWidth="827" pageHeight="1169" math="0" shadow="0">
      <root>
        <mxCell id="SMj7IjmcBKmufN-tY6KP-0" />
        <mxCell id="SMj7IjmcBKmufN-tY6KP-1" parent="SMj7IjmcBKmufN-tY6KP-0" />
        <mxCell id="emgOs0Ezd0VmEOPrKp8R-0" style="edgeStyle=orthogonalEdgeStyle;rounded=0;orthogonalLoop=1;jettySize=auto;html=1;exitX=0;exitY=0.5;exitDx=0;exitDy=0;" edge="1" parent="SMj7IjmcBKmufN-tY6KP-1" source="emgOs0Ezd0VmEOPrKp8R-2" target="emgOs0Ezd0VmEOPrKp8R-5">
          <mxGeometry relative="1" as="geometry" />
        </mxCell>
        <mxCell id="emgOs0Ezd0VmEOPrKp8R-1" style="edgeStyle=orthogonalEdgeStyle;rounded=0;orthogonalLoop=1;jettySize=auto;html=1;" edge="1" parent="SMj7IjmcBKmufN-tY6KP-1" source="emgOs0Ezd0VmEOPrKp8R-2" target="emgOs0Ezd0VmEOPrKp8R-8">
          <mxGeometry relative="1" as="geometry" />
        </mxCell>
        <mxCell id="emgOs0Ezd0VmEOPrKp8R-2" value="21" style="ellipse;whiteSpace=wrap;html=1;aspect=fixed;" vertex="1" parent="SMj7IjmcBKmufN-tY6KP-1">
          <mxGeometry x="320" y="585" width="80" height="80" as="geometry" />
        </mxCell>
        <mxCell id="emgOs0Ezd0VmEOPrKp8R-3" style="edgeStyle=orthogonalEdgeStyle;rounded=0;orthogonalLoop=1;jettySize=auto;html=1;" edge="1" parent="SMj7IjmcBKmufN-tY6KP-1" source="emgOs0Ezd0VmEOPrKp8R-5" target="emgOs0Ezd0VmEOPrKp8R-11">
          <mxGeometry relative="1" as="geometry" />
        </mxCell>
        <mxCell id="emgOs0Ezd0VmEOPrKp8R-4" style="edgeStyle=orthogonalEdgeStyle;rounded=0;orthogonalLoop=1;jettySize=auto;html=1;entryX=0.5;entryY=0;entryDx=0;entryDy=0;" edge="1" parent="SMj7IjmcBKmufN-tY6KP-1" source="emgOs0Ezd0VmEOPrKp8R-5" target="emgOs0Ezd0VmEOPrKp8R-14">
          <mxGeometry relative="1" as="geometry" />
        </mxCell>
        <mxCell id="emgOs0Ezd0VmEOPrKp8R-5" value="11" style="ellipse;whiteSpace=wrap;html=1;aspect=fixed;" vertex="1" parent="SMj7IjmcBKmufN-tY6KP-1">
          <mxGeometry x="40" y="715" width="80" height="80" as="geometry" />
        </mxCell>
        <mxCell id="emgOs0Ezd0VmEOPrKp8R-6" style="edgeStyle=orthogonalEdgeStyle;rounded=0;orthogonalLoop=1;jettySize=auto;html=1;" edge="1" parent="SMj7IjmcBKmufN-tY6KP-1" source="emgOs0Ezd0VmEOPrKp8R-8" target="emgOs0Ezd0VmEOPrKp8R-17">
          <mxGeometry relative="1" as="geometry" />
        </mxCell>
        <mxCell id="emgOs0Ezd0VmEOPrKp8R-7" style="edgeStyle=orthogonalEdgeStyle;rounded=0;orthogonalLoop=1;jettySize=auto;html=1;" edge="1" parent="SMj7IjmcBKmufN-tY6KP-1" source="emgOs0Ezd0VmEOPrKp8R-8" target="emgOs0Ezd0VmEOPrKp8R-18">
          <mxGeometry relative="1" as="geometry" />
        </mxCell>
        <mxCell id="emgOs0Ezd0VmEOPrKp8R-8" value="18" style="ellipse;whiteSpace=wrap;html=1;aspect=fixed;" vertex="1" parent="SMj7IjmcBKmufN-tY6KP-1">
          <mxGeometry x="610" y="715" width="80" height="80" as="geometry" />
        </mxCell>
        <mxCell id="emgOs0Ezd0VmEOPrKp8R-9" style="edgeStyle=orthogonalEdgeStyle;rounded=0;orthogonalLoop=1;jettySize=auto;html=1;entryX=1;entryY=0.5;entryDx=0;entryDy=0;" edge="1" parent="SMj7IjmcBKmufN-tY6KP-1" source="emgOs0Ezd0VmEOPrKp8R-11" target="emgOs0Ezd0VmEOPrKp8R-19">
          <mxGeometry relative="1" as="geometry" />
        </mxCell>
        <mxCell id="emgOs0Ezd0VmEOPrKp8R-10" style="edgeStyle=orthogonalEdgeStyle;rounded=0;orthogonalLoop=1;jettySize=auto;html=1;entryX=0;entryY=0.5;entryDx=0;entryDy=0;" edge="1" parent="SMj7IjmcBKmufN-tY6KP-1" source="emgOs0Ezd0VmEOPrKp8R-11" target="emgOs0Ezd0VmEOPrKp8R-20">
          <mxGeometry relative="1" as="geometry" />
        </mxCell>
        <mxCell id="emgOs0Ezd0VmEOPrKp8R-11" value="9" style="ellipse;whiteSpace=wrap;html=1;aspect=fixed;" vertex="1" parent="SMj7IjmcBKmufN-tY6KP-1">
          <mxGeometry x="-90" y="815" width="80" height="80" as="geometry" />
        </mxCell>
        <mxCell id="emgOs0Ezd0VmEOPrKp8R-12" style="edgeStyle=orthogonalEdgeStyle;rounded=0;orthogonalLoop=1;jettySize=auto;html=1;entryX=1;entryY=0.5;entryDx=0;entryDy=0;" edge="1" parent="SMj7IjmcBKmufN-tY6KP-1" source="emgOs0Ezd0VmEOPrKp8R-14" target="emgOs0Ezd0VmEOPrKp8R-21">
          <mxGeometry relative="1" as="geometry" />
        </mxCell>
        <mxCell id="emgOs0Ezd0VmEOPrKp8R-13" style="edgeStyle=orthogonalEdgeStyle;rounded=0;orthogonalLoop=1;jettySize=auto;html=1;entryX=0;entryY=0.5;entryDx=0;entryDy=0;" edge="1" parent="SMj7IjmcBKmufN-tY6KP-1" source="emgOs0Ezd0VmEOPrKp8R-14" target="emgOs0Ezd0VmEOPrKp8R-22">
          <mxGeometry relative="1" as="geometry" />
        </mxCell>
        <mxCell id="emgOs0Ezd0VmEOPrKp8R-14" value="10" style="ellipse;whiteSpace=wrap;html=1;aspect=fixed;" vertex="1" parent="SMj7IjmcBKmufN-tY6KP-1">
          <mxGeometry x="160" y="815" width="80" height="80" as="geometry" />
        </mxCell>
        <mxCell id="emgOs0Ezd0VmEOPrKp8R-15" style="edgeStyle=orthogonalEdgeStyle;rounded=0;orthogonalLoop=1;jettySize=auto;html=1;entryX=1;entryY=0.5;entryDx=0;entryDy=0;" edge="1" parent="SMj7IjmcBKmufN-tY6KP-1" source="emgOs0Ezd0VmEOPrKp8R-17" target="emgOs0Ezd0VmEOPrKp8R-23">
          <mxGeometry relative="1" as="geometry" />
        </mxCell>
        <mxCell id="emgOs0Ezd0VmEOPrKp8R-16" style="edgeStyle=orthogonalEdgeStyle;rounded=0;orthogonalLoop=1;jettySize=auto;html=1;entryX=0;entryY=0.5;entryDx=0;entryDy=0;" edge="1" parent="SMj7IjmcBKmufN-tY6KP-1" source="emgOs0Ezd0VmEOPrKp8R-17" target="emgOs0Ezd0VmEOPrKp8R-24">
          <mxGeometry relative="1" as="geometry" />
        </mxCell>
        <mxCell id="emgOs0Ezd0VmEOPrKp8R-17" value="16" style="ellipse;whiteSpace=wrap;html=1;aspect=fixed;" vertex="1" parent="SMj7IjmcBKmufN-tY6KP-1">
          <mxGeometry x="470" y="815" width="80" height="80" as="geometry" />
        </mxCell>
        <mxCell id="emgOs0Ezd0VmEOPrKp8R-18" value="17" style="ellipse;whiteSpace=wrap;html=1;aspect=fixed;" vertex="1" parent="SMj7IjmcBKmufN-tY6KP-1">
          <mxGeometry x="760" y="815" width="80" height="80" as="geometry" />
        </mxCell>
        <mxCell id="emgOs0Ezd0VmEOPrKp8R-19" value="6" style="ellipse;whiteSpace=wrap;html=1;aspect=fixed;" vertex="1" parent="SMj7IjmcBKmufN-tY6KP-1">
          <mxGeometry x="-170" y="905" width="80" height="80" as="geometry" />
        </mxCell>
        <mxCell id="emgOs0Ezd0VmEOPrKp8R-20" value="8" style="ellipse;whiteSpace=wrap;html=1;aspect=fixed;" vertex="1" parent="SMj7IjmcBKmufN-tY6KP-1">
          <mxGeometry x="-20" y="905" width="80" height="80" as="geometry" />
        </mxCell>
        <mxCell id="emgOs0Ezd0VmEOPrKp8R-21" value="7" style="ellipse;whiteSpace=wrap;html=1;aspect=fixed;" vertex="1" parent="SMj7IjmcBKmufN-tY6KP-1">
          <mxGeometry x="90" y="905" width="80" height="80" as="geometry" />
        </mxCell>
        <mxCell id="emgOs0Ezd0VmEOPrKp8R-22" value="3" style="ellipse;whiteSpace=wrap;html=1;aspect=fixed;" vertex="1" parent="SMj7IjmcBKmufN-tY6KP-1">
          <mxGeometry x="240" y="905" width="80" height="80" as="geometry" />
        </mxCell>
        <mxCell id="emgOs0Ezd0VmEOPrKp8R-23" value="4" style="ellipse;whiteSpace=wrap;html=1;aspect=fixed;" vertex="1" parent="SMj7IjmcBKmufN-tY6KP-1">
          <mxGeometry x="390" y="905" width="80" height="80" as="geometry" />
        </mxCell>
        <mxCell id="emgOs0Ezd0VmEOPrKp8R-24" value="12" style="ellipse;whiteSpace=wrap;html=1;aspect=fixed;" vertex="1" parent="SMj7IjmcBKmufN-tY6KP-1">
          <mxGeometry x="540" y="905" width="80" height="80" as="geometry" />
        </mxCell>
      </root>
    </mxGraphModel>
  </diagram>
</mxfile>
